<svg width="24" height="24" viewBox="0 0 24 24" fill="none" xmlns="http://www.w3.org/2000/svg">
    <path
        d="M8.465 11.293C9.598 10.16 11.574 10.16 12.707 11.293L13.414 12L14.828 10.586L14.121 9.879C13.178 8.935 11.922 8.414 10.586 8.414C9.25 8.414 7.994 8.935 7.051 9.879L4.929 12C3.99329 12.9387 3.46787 14.2101 3.46787 15.5355C3.46787 16.8609 3.99329 18.1323 4.929 19.071C5.39287 19.5355 5.94397 19.9038 6.55062 20.1547C7.15727 20.4056 7.80752 20.5342 8.464 20.533C9.12066 20.5344 9.77111 20.4059 10.378 20.155C10.9848 19.9041 11.536 19.5357 12 19.071L12.707 18.364L11.293 16.95L10.586 17.657C10.0225 18.218 9.25967 18.533 8.4645 18.533C7.66933 18.533 6.90653 18.218 6.343 17.657C5.7815 17.0937 5.46621 16.3308 5.46621 15.5355C5.46621 14.7402 5.7815 13.9773 6.343 13.414L8.465 11.293Z"
        fill="#1A141F" />
    <path
        d="M12 4.92899L11.293 5.63599L12.707 7.04999L13.414 6.34299C13.9775 5.78198 14.7403 5.46702 15.5355 5.46702C16.3307 5.46702 17.0935 5.78198 17.657 6.34299C18.2185 6.90626 18.5338 7.66916 18.5338 8.46449C18.5338 9.25983 18.2185 10.0227 17.657 10.586L15.535 12.707C14.402 13.84 12.426 13.84 11.293 12.707L10.586 12L9.172 13.414L9.879 14.121C10.822 15.065 12.078 15.586 13.414 15.586C14.75 15.586 16.006 15.065 16.949 14.121L19.071 12C20.0067 11.0613 20.5321 9.78991 20.5321 8.46449C20.5321 7.13908 20.0067 5.86771 19.071 4.92899C18.1325 3.9928 16.8611 3.46704 15.5355 3.46704C14.2099 3.46704 12.9385 3.9928 12 4.92899Z"
        fill="#1A141F" />
</svg>
    