<svg width="16" height="16" viewBox="0 0 16 16" fill="none" xmlns="http://www.w3.org/2000/svg">
    <g clip-path="url(#clip0_680_11492)">
        <path fill-rule="evenodd" clip-rule="evenodd"
            d="M13.618 2.397C10.513 -0.708001 5.48201 -0.713001 2.38301 2.386C-0.717988 5.488 -0.714988 10.517 2.39201 13.622C5.49701 16.727 10.529 16.731 13.627 13.632C16.727 10.533 16.724 5.502 13.618 2.397ZM9.61501 11.351L7.92701 9.663L6.23901 11.351C5.55001 12.04 5.03201 12.64 4.21001 11.819C3.39001 10.998 3.98701 10.48 4.67901 9.79L6.36701 8.103L4.67901 6.415C3.98901 5.726 3.39001 5.208 4.21001 4.386C5.03201 3.566 5.55001 4.165 6.23901 4.855L7.92701 6.541L9.61501 4.855C10.305 4.166 10.82 3.565 11.642 4.386C12.464 5.208 11.865 5.726 11.175 6.415L9.48701 8.102L11.175 9.789C11.864 10.48 12.464 10.998 11.642 11.819C10.822 12.64 10.305 12.04 9.61501 11.351Z"
            fill="#C61349" />
    </g>
    <defs>
        <clipPath id="clip0_680_11492">
            <rect width="16" height="16" fill="white" />
        </clipPath>
    </defs>
</svg>
    