<svg width="24" height="24" viewBox="0 0 24 24" fill="none" xmlns="http://www.w3.org/2000/svg">
    <path
        d="M13.0667 4.16771C15.4136 4.40667 17.5814 5.42505 19.1557 7.02812C20.7299 8.63119 21.6002 10.7065 21.6 12.8571V21.6H2.39999V12.8571C2.3998 10.7065 3.27004 8.63119 4.84432 7.02812C6.41859 5.42505 8.58643 4.40667 10.9333 4.16771V1.2H13.0667V4.16771ZM12 17.7143C13.4145 17.7143 14.771 17.2025 15.7712 16.2917C16.7714 15.3808 17.3333 14.1453 17.3333 12.8571C17.3333 11.5689 16.7714 10.3335 15.7712 9.42262C14.771 8.51173 13.4145 8 12 8C10.5855 8 9.22895 8.51173 8.22876 9.42262C7.22856 10.3335 6.66666 11.5689 6.66666 12.8571C6.66666 14.1453 7.22856 15.3808 8.22876 16.2917C9.22895 17.2025 10.5855 17.7143 12 17.7143ZM12 15.7714C11.1513 15.7714 10.3374 15.4644 9.73725 14.9178C9.13714 14.3713 8.79999 13.6301 8.79999 12.8571C8.79999 12.0842 9.13714 11.343 9.73725 10.7964C10.3374 10.2499 11.1513 9.94285 12 9.94285C12.8487 9.94285 13.6626 10.2499 14.2627 10.7964C14.8629 11.343 15.2 12.0842 15.2 12.8571C15.2 13.6301 14.8629 14.3713 14.2627 14.9178C13.6626 15.4644 12.8487 15.7714 12 15.7714ZM12 13.8286C12.2829 13.8286 12.5542 13.7262 12.7542 13.544C12.9543 13.3619 13.0667 13.1148 13.0667 12.8571C13.0667 12.5995 12.9543 12.3524 12.7542 12.1702C12.5542 11.9881 12.2829 11.8857 12 11.8857C11.7171 11.8857 11.4458 11.9881 11.2457 12.1702C11.0457 12.3524 10.9333 12.5995 10.9333 12.8571C10.9333 13.1148 11.0457 13.3619 11.2457 13.544C11.4458 13.7262 11.7171 13.8286 12 13.8286Z"
        fill="#1A141F" />
</svg>
    