<svg width="24" height="24" viewBox="0 0 24 24" fill="none" xmlns="http://www.w3.org/2000/svg">
    <path
        d="M12 22C14.6521 22 17.1957 20.9464 19.071 19.0711C20.9464 17.1957 22 14.6522 22 12C22 9.34784 20.9464 6.8043 19.071 4.92893C17.1957 3.05357 14.6521 2 12 2C9.3478 2 6.80427 3.05357 4.9289 4.92893C3.05354 6.8043 1.99997 9.34784 1.99997 12C1.99997 14.6522 3.05354 17.1957 4.9289 19.0711C6.80427 20.9464 9.3478 22 12 22ZM10.75 10.125C10.75 11.16 10.19 12 9.49997 12C8.80997 12 8.24997 11.16 8.24997 10.125C8.24997 9.09 8.80997 8.25 9.49997 8.25C10.19 8.25 10.75 9.09 10.75 10.125ZM7.35622 13.9588C7.49977 13.8759 7.67036 13.8534 7.83047 13.8963C7.99058 13.9392 8.12709 14.044 8.20997 14.1875C8.59386 14.8529 9.14629 15.4055 9.81163 15.7895C10.477 16.1735 11.2318 16.3755 12 16.375C12.7682 16.3755 13.523 16.1735 14.1883 15.7895C14.8537 15.4055 15.4061 14.8529 15.79 14.1875C15.8307 14.1158 15.8852 14.053 15.9504 14.0025C16.0155 13.952 16.09 13.9148 16.1695 13.8932C16.2491 13.8716 16.3321 13.866 16.4139 13.8766C16.4956 13.8872 16.5744 13.9139 16.6458 13.9551C16.7172 13.9964 16.7797 14.0513 16.8298 14.1168C16.8798 14.1822 16.9165 14.257 16.9375 14.3367C16.9586 14.4163 16.9637 14.4994 16.9525 14.5811C16.9414 14.6627 16.9142 14.7414 16.8725 14.8125C16.3789 15.6679 15.6687 16.3783 14.8133 16.872C13.9579 17.3657 12.9876 17.6254 12 17.625C11.0123 17.6254 10.042 17.3657 9.18665 16.872C8.33128 16.3783 7.62107 15.6679 7.12747 14.8125C7.04459 14.669 7.02213 14.4984 7.06503 14.3383C7.10793 14.1781 7.21267 14.0416 7.35622 13.9588ZM14.5 12C13.81 12 13.25 11.16 13.25 10.125C13.25 9.09 13.81 8.25 14.5 8.25C15.19 8.25 15.75 9.09 15.75 10.125C15.75 11.16 15.19 12 14.5 12Z"
        fill="#1A141F" />
</svg>
    