<svg width="24" height="24" viewBox="0 0 24 24" fill="none" xmlns="http://www.w3.org/2000/svg">
    <path
        d="M8.76 11.73C8.40195 11.73 8.05858 11.8722 7.8054 12.1254C7.55223 12.3786 7.41 12.722 7.41 13.08C7.41 13.438 7.55223 13.7814 7.8054 14.0346C8.05858 14.2878 8.40195 14.43 8.76 14.43C8.93728 14.43 9.11283 14.3951 9.27662 14.3272C9.44041 14.2594 9.58923 14.1599 9.71459 14.0346C9.83995 13.9092 9.93939 13.7604 10.0072 13.5966C10.0751 13.4328 10.11 13.2573 10.11 13.08C10.11 12.9027 10.0751 12.7272 10.0072 12.5634C9.93939 12.3996 9.83995 12.2508 9.71459 12.1254C9.58923 12 9.44041 11.9006 9.27662 11.8328C9.11283 11.7649 8.93728 11.73 8.76 11.73ZM15.24 11.73C14.882 11.73 14.5386 11.8722 14.2854 12.1254C14.0322 12.3786 13.89 12.722 13.89 13.08C13.89 13.438 14.0322 13.7814 14.2854 14.0346C14.5386 14.2878 14.882 14.43 15.24 14.43C15.598 14.43 15.9414 14.2878 16.1946 14.0346C16.4478 13.7814 16.59 13.438 16.59 13.08C16.59 12.722 16.4478 12.3786 16.1946 12.1254C15.9414 11.8722 15.598 11.73 15.24 11.73ZM12 1.2C10.5817 1.2 9.17733 1.47935 7.86701 2.0221C6.5567 2.56485 5.36612 3.36037 4.36324 4.36324C2.33785 6.38864 1.2 9.13566 1.2 12C1.2 14.8643 2.33785 17.6114 4.36324 19.6367C5.36612 20.6396 6.5567 21.4351 7.86701 21.9779C9.17733 22.5206 10.5817 22.8 12 22.8C14.8643 22.8 17.6114 21.6621 19.6367 19.6367C21.6621 17.6114 22.8 14.8643 22.8 12C22.8 10.5817 22.5206 9.17733 21.9779 7.86701C21.4351 6.5567 20.6396 5.36612 19.6367 4.36324C18.6339 3.36037 17.4433 2.56485 16.133 2.0221C14.8227 1.47935 13.4183 1.2 12 1.2ZM12 20.64C7.2372 20.64 3.36 16.7628 3.36 12C3.36 11.6868 3.36 11.3736 3.414 11.0712C5.9628 9.9372 7.9824 7.8528 9.0408 5.2716C10.2755 7.02377 12.0049 8.36773 14.0077 9.13153C16.0105 9.89533 18.1957 10.0442 20.2836 9.5592C20.5104 10.326 20.64 11.1468 20.64 12C20.64 16.7628 16.7628 20.64 12 20.64Z"
        fill="#1A141F" />
</svg>
    