<svg width="24" height="24" viewBox="0 0 24 24" fill="none" xmlns="http://www.w3.org/2000/svg">
    <g clip-path="url(#clip0_1885_26080)">
        <path
            d="M10.5703 4.15243C10.5703 5.09848 10.1945 6.00578 9.52555 6.67473C8.85659 7.34369 7.94929 7.7195 7.00324 7.7195C6.0572 7.7195 5.1499 7.34369 4.48094 6.67473C3.81199 6.00578 3.43617 5.09848 3.43617 4.15243C3.43617 3.20638 3.81199 2.29909 4.48094 1.63013C5.1499 0.961173 6.0572 0.585358 7.00324 0.585358C7.94929 0.585358 8.85659 0.961173 9.52555 1.63013C10.1945 2.29909 10.5703 3.20638 10.5703 4.15243ZM16.5987 9.93537C16.4649 9.86834 16.3134 9.84509 16.1656 9.8689C16.0179 9.89272 15.8814 9.96239 15.7754 10.0681L10.4819 16.7884L6.68649 12.8333C6.54946 12.742 6.38509 12.701 6.22125 12.7171C6.05742 12.7332 5.9042 12.8055 5.78759 12.9217L0.585366 19.1341V21.9878C0.585366 22.3662 0.735692 22.7291 1.00327 22.9967C1.27086 23.2643 1.63378 23.4146 2.0122 23.4146H21.9878C22.1752 23.4146 22.3607 23.3777 22.5338 23.306C22.7069 23.2343 22.8642 23.1292 22.9967 22.9967C23.1292 22.8642 23.2343 22.7069 23.306 22.5338C23.3777 22.3607 23.4146 22.1752 23.4146 21.9878V15.5671L16.5987 9.93537Z"
            fill="#1A141F" />
    </g>
    <defs>
        <clipPath id="clip0_1885_26080">
            <rect width="24" height="24" fill="white" />
        </clipPath>
    </defs>
</svg>
    