<svg width="16" height="16" viewBox="0 0 16 16" fill="none" xmlns="http://www.w3.org/2000/svg">
    <g clip-path="url(#clip0_680_11493)">
        <path fill-rule="evenodd" clip-rule="evenodd"
            d="M0 8C0 3.5816 3.5816 0 8 0C12.4184 0 16 3.5816 16 8C16 12.4184 12.4184 16 8 16C3.5816 16 0 12.4184 0 8ZM8.8 4.8C8.8 4.58783 8.71571 4.38434 8.56569 4.23431C8.41566 4.08429 8.21217 4 8 4C7.78783 4 7.58434 4.08429 7.43431 4.23431C7.28429 4.38434 7.2 4.58783 7.2 4.8C7.2 5.01217 7.28429 5.21566 7.43431 5.36569C7.58434 5.51571 7.78783 5.6 8 5.6C8.21217 5.6 8.41566 5.51571 8.56569 5.36569C8.71571 5.21566 8.8 5.01217 8.8 4.8ZM8 12C8.21217 12 8.41566 11.9157 8.56569 11.7657C8.71571 11.6157 8.8 11.4122 8.8 11.2V8C8.8 7.78783 8.71571 7.58434 8.56569 7.43431C8.41566 7.28429 8.21217 7.2 8 7.2C7.78783 7.2 7.58434 7.28429 7.43431 7.43431C7.28429 7.58434 7.2 7.78783 7.2 8V11.2C7.2 11.4122 7.28429 11.6157 7.43431 11.7657C7.58434 11.9157 7.78783 12 8 12Z"
            fill="#00ACE5" />
    </g>
    <defs>
        <clipPath id="clip0_680_11493">
            <rect width="16" height="16" fill="white" />
        </clipPath>
    </defs>
</svg>
    