<svg width="24" height="24" viewBox="0 0 24 24" fill="none" xmlns="http://www.w3.org/2000/svg">
    <path
        d="M21.2089 9.17501L15.2581 8.31016L12.5979 2.9172C12.5253 2.76954 12.4057 2.65001 12.2581 2.57735C11.8878 2.39454 11.4378 2.54688 11.2526 2.9172L8.59246 8.31016L2.64168 9.17501C2.47762 9.19845 2.32762 9.27579 2.21278 9.39298C2.07394 9.53568 1.99743 9.72766 2.00007 9.92675C2.0027 10.1258 2.08427 10.3157 2.22684 10.4547L6.53231 14.6524L5.51512 20.5797C5.49127 20.7176 5.50652 20.8594 5.55916 20.989C5.6118 21.1187 5.69972 21.231 5.81294 21.3132C5.92616 21.3955 6.06015 21.4443 6.19973 21.4543C6.3393 21.4642 6.47888 21.4349 6.60262 21.3695L11.9253 18.5711L17.2479 21.3695C17.3932 21.4469 17.562 21.4727 17.7237 21.4445C18.1315 21.3742 18.4057 20.9875 18.3354 20.5797L17.3182 14.6524L21.6237 10.4547C21.7409 10.3399 21.8182 10.1899 21.8417 10.0258C21.905 9.61563 21.619 9.23595 21.2089 9.17501Z"
        fill="#1A141F" />
</svg>
    